<svg xmlns="http://www.w3.org/2000/svg" viewBox="0 0 755 371"><g id="Calque_2" data-name="Calque 2"><g id="Calque_1-2" data-name="Calque 1"><rect width="755" height="39"/><path d="M214.5,223A14.5,14.5,0,1,0,200,208.5,14.5,14.5,0,0,0,214.5,223ZM21.5,51V371h712V51ZM367,331H61V266H367Zm0-90H61V176H367Zm.5-86H61.5V90h306Zm21-66h306v65h-306ZM695,331H389V266H695Zm0-90H389V176H695ZM214.5,313A14.5,14.5,0,1,0,200,298.5,14.5,14.5,0,0,0,214.5,313Zm327-205A14.5,14.5,0,1,0,556,122.5,14.5,14.5,0,0,0,541.5,108Zm-327,29A14.5,14.5,0,1,0,200,122.5,14.5,14.5,0,0,0,214.5,137Zm327,176A14.5,14.5,0,1,0,527,298.5,14.5,14.5,0,0,0,541.5,313Zm0-90A14.5,14.5,0,1,0,527,208.5,14.5,14.5,0,0,0,541.5,223Z"/></g></g></svg>