<svg xmlns="http://www.w3.org/2000/svg" viewBox="0 0 267.49 189.4"><g id="Calque_2" data-name="Calque 2"><g id="Calque_2-2" data-name="Calque 2"><path d="M267.49,34.5a29.2,29.2,0,0,0-55.22-13.26C190.88,8,163.59,0,133.85,0S76.68,8,55.27,21.33A29.2,29.2,0,1,0,17.54,61.27a74.92,74.92,0,0,0-8,33.43c0,52.3,55.65,94.7,124.3,94.7s124.3-42.4,124.3-94.7a75,75,0,0,0-8-33.51A29.2,29.2,0,0,0,267.49,34.5Zm-212,70.61A14.77,14.77,0,1,1,70.28,90.34,14.77,14.77,0,0,1,55.51,105.11ZM139.22,161V132.14h6.09a6.61,6.61,0,0,0,0-13.22H139a6.59,6.59,0,0,0-12.81,0h-6.29a6.61,6.61,0,1,0,0,13.22H126V161c-23.72-2.09-42-15.16-42-31,0-17.31,21.78-31.34,48.64-31.34s48.63,14,48.63,31.34C181.24,145.83,162.94,158.9,139.22,161Zm73.72-55.88a14.77,14.77,0,1,1,14.77-14.77A14.77,14.77,0,0,1,212.94,105.11Z"/></g></g></svg>